<?xml version="1.0" encoding="UTF-8" standalone="no"?>
<svg
   xmlns:dc="http://purl.org/dc/elements/1.1/"
   xmlns:cc="http://creativecommons.org/ns#"
   xmlns:rdf="http://www.w3.org/1999/02/22-rdf-syntax-ns#"
   xmlns:svg="http://www.w3.org/2000/svg"
   xmlns="http://www.w3.org/2000/svg"
   xmlns:sodipodi="http://sodipodi.sourceforge.net/DTD/sodipodi-0.dtd"
   xmlns:inkscape="http://www.inkscape.org/namespaces/inkscape"
   inkscape:version="1.0 (4035a4f, 2020-05-01)"
   height="498.72241"
   width="405.42624"
   sodipodi:docname="logo1.svg"
   xml:space="preserve"
   viewBox="0 0 405.42622 498.7224"
   y="0px"
   x="0px"
   id="Ebene_1"
   version="1.1"><metadata
   id="metadata53"><rdf:RDF><cc:Work
       rdf:about=""><dc:format>image/svg+xml</dc:format><dc:type
         rdf:resource="http://purl.org/dc/dcmitype/StillImage" /><dc:title></dc:title></cc:Work></rdf:RDF></metadata><defs
   id="defs51" /><sodipodi:namedview
   inkscape:snap-page="false"
   inkscape:current-layer="Ebene_1"
   inkscape:window-maximized="0"
   inkscape:window-y="23"
   inkscape:window-x="0"
   inkscape:cy="226.57347"
   inkscape:cx="164.0379"
   inkscape:zoom="0.87303567"
   showgrid="false"
   id="namedview49"
   inkscape:window-height="1005"
   inkscape:window-width="1366"
   inkscape:pageshadow="2"
   inkscape:pageopacity="0"
   guidetolerance="10"
   gridtolerance="10"
   objecttolerance="10"
   borderopacity="1"
   bordercolor="#666666"
   pagecolor="#ffffff" />
<style
   id="style10"
   type="text/css">
	.st0{display:none;fill:#E41B17;}
	.st1{fill:#E41B17;}
</style>
<g
   transform="translate(-107.46376,-152.16633)"
   id="g22">
	<path
   id="path12"
   d="m -256.61,576.77 c 0,-136.55 0,-273.1 0,-409.65 136.55,0 273.1,0 409.65,0 0,136.55 0,273.1 0,409.65 -136.55,0 -273.1,0 -409.65,0 z M 151.57,371.32 C 149.27,313.82 129.09,263.47 86.16,223.65 43.17,183.78 -8.75,165 -66.79,169.6 c -53.7,4.26 -100.09,27.14 -136.38,68.18 -31.03,35.1 -48.23,76.49 -50.43,122.84 -2.92,61.5 18.19,114.77 62.8,157.7 35.89,34.54 79.65,53.27 129.02,55.41 63.96,2.77 118.56,-20.15 161.6,-68.01 34.06,-37.86 49.69,-83.26 51.75,-134.4 z"
   class="st0" />
	<path
   id="path14"
   d="m 512.89,354.56 c -2.07,51.14 -17.69,96.54 -51.74,134.41 -43.04,47.86 -97.64,70.79 -161.6,68.01 -49.37,-2.14 -93.13,-20.87 -129.02,-55.41 -44.61,-42.93 -65.72,-96.2 -62.8,-157.7 2.2,-46.35 19.4,-87.75 50.43,-122.84 36.29,-41.05 82.68,-63.92 136.38,-68.18 58.03,-4.61 109.96,14.17 152.95,54.04 42.92,39.82 63.1,90.17 65.4,147.67 z M 391.47,251.27 c 0,21.61 0,41.99 0,62.37 6.49,0 12.12,0 18.06,0 0,-11.32 0,-22.18 0,-33.04 3.18,7.7 5.58,15.49 8,23.27 3.1,9.93 3.11,9.84 13.31,9.65 2.66,-0.05 3.82,-0.91 4.47,-3.51 2.25,-8.99 4.75,-17.92 7.17,-26.86 0.32,-1.17 0.79,-2.3 1.2,-3.45 0.42,0.09 0.84,0.17 1.26,0.26 0,9.79 -0.07,19.57 0.09,29.35 0.02,1.24 1.2,3.49 1.94,3.53 5.25,0.31 10.53,0.16 15.32,0.16 0,-21.18 0,-41.66 0,-62.13 -7.58,0 -14.24,0.14 -20.9,-0.06 -2.92,-0.09 -4.06,1.05 -4.68,3.77 -1.36,5.98 -3.02,11.89 -4.58,17.82 -1.5,5.68 -3.04,11.35 -4.56,17.02 -1.37,-1.45 -1.88,-2.81 -2.3,-4.21 -3.08,-10.18 -6.07,-20.38 -9.3,-30.51 -0.43,-1.34 -2.04,-3.24 -3.16,-3.28 -7.18,-0.29 -14.39,-0.15 -21.34,-0.15 z m -30.55,63.12 c 5.42,0 10.03,-0.13 14.63,0.05 2.81,0.11 3.89,-0.76 3.75,-3.69 -0.28,-6.13 -0.25,-12.27 -0.36,-18.41 -0.21,-12.28 -0.45,-24.55 -0.59,-36.83 -0.03,-2.45 -0.49,-3.71 -3.46,-3.52 -5.85,0.37 -11.73,0.42 -17.59,0.33 -2.68,-0.04 -3.83,0.89 -4.47,3.48 -2.4,9.8 -5.02,19.54 -7.58,29.3 -0.5,1.9 -1.1,3.77 -1.66,5.65 -1.24,-1.15 -1.72,-2.35 -2.1,-3.57 -3.12,-10.31 -6.18,-20.63 -9.39,-30.91 -0.39,-1.26 -1.5,-3.25 -2.34,-3.28 -7.56,-0.26 -15.13,-0.15 -22.12,-0.15 0,21.5 0,41.99 0,62.17 6.49,0 12.13,0 17.95,0 0,-11.35 0,-22.18 0,-33.58 0.6,0.79 0.83,0.98 0.91,1.22 2.35,7.55 4.69,15.11 7.01,22.66 3.07,9.96 3.06,9.82 13.29,9.77 3,-0.02 3.96,-1.28 4.62,-3.86 2.26,-8.85 4.7,-17.65 7.09,-26.47 0.33,-1.23 0.75,-2.44 1.13,-3.66 0.42,0.04 0.84,0.08 1.26,0.12 0.02,10.96 0.02,21.9 0.02,33.18 z m -93.94,3.42 c 19.5,0.07 32.85,-12.86 32.93,-31.91 0.09,-20.8 -12.42,-33.64 -32.77,-33.61 -19.41,0.02 -32.56,13.04 -32.66,32.3 -0.09,19.96 12.82,33.15 32.5,33.22 z m -35.43,-63.14 c -5.25,0 -9.31,0.27 -13.32,-0.06 -6.75,-0.56 -12.02,1.17 -15.93,7.22 -2.64,4.08 -6.38,7.44 -9.5,11.23 -0.74,0.89 -0.98,2.18 -1.45,3.29 -0.62,-0.44 -1.25,-0.88 -1.87,-1.32 0,-1.46 0.02,-2.91 0,-4.37 -0.05,-4.23 0.01,-8.46 -0.28,-12.68 -0.06,-0.96 -1.32,-2.59 -2.07,-2.63 -5.55,-0.23 -11.11,-0.12 -16.29,-0.12 0,21.34 0,41.82 0,62.5 6.13,0 11.44,-0.04 16.75,0.02 2.48,0.03 2.92,-1.38 2.84,-3.42 -0.16,-3.95 0,-7.94 -0.45,-11.85 -0.58,-4.96 2.48,-7.26 6.05,-9.84 3.44,5.44 7.26,10.36 9.85,15.86 3.34,7.12 7.93,10.2 15.91,8.7 4.09,-0.77 8.44,-0.13 13.71,-0.13 -8.44,-12.54 -15.95,-23.91 -23.7,-35.1 -1.88,-2.72 -2.01,-4.39 0.45,-6.86 6.33,-6.34 12.33,-13.02 19.3,-20.44 z m 53.04,158.52 c 0,18.98 0,37.71 0,56.83 5.48,0 11,0 17.33,0 0,-9.52 0,-18.94 0,-28.37 0.41,-0.11 0.82,-0.22 1.22,-0.33 0.95,1.2 2.02,2.33 2.83,3.62 4.78,7.63 9.43,15.33 14.28,22.91 0.79,1.23 2.28,2.75 3.53,2.83 5.13,0.32 10.29,0.13 16.22,0.13 0,-19.09 0,-37.81 0,-56.99 -5.36,0 -10.98,0 -17.35,0 0,9.92 0,19.65 0,29.37 -0.41,0.11 -0.83,0.23 -1.24,0.34 -0.82,-1.12 -1.7,-2.2 -2.43,-3.38 -5.04,-8.1 -10.01,-16.25 -15.13,-24.31 -0.71,-1.12 -2.1,-2.48 -3.23,-2.55 -5.02,-0.26 -10.05,-0.1 -16.03,-0.1 z m -27.96,-45.5 c -0.3,0.08 -0.61,0.17 -0.91,0.25 -0.74,-1.07 -1.51,-2.13 -2.21,-3.23 -3.47,-5.39 -6.93,-10.79 -10.38,-16.19 -6.92,-10.84 -6.91,-10.74 -19.88,-10.67 -3.09,0.02 -3.93,0.98 -3.91,3.99 0.13,15.97 0.05,31.93 0.07,47.9 0,1.03 0.24,2.06 0.4,3.31 4.82,0 9.32,-0.15 13.8,0.05 2.85,0.13 3.48,-1.12 3.39,-3.64 -0.14,-3.95 -0.03,-7.91 -0.03,-11.87 0,-3.85 0,-7.71 0,-11.56 1.66,0.92 2.47,1.97 3.19,3.08 4.15,6.41 8.18,12.91 12.49,19.21 1.24,1.82 3.14,4.23 4.95,4.43 5.32,0.59 10.76,0.21 16.57,0.21 0,-5.88 0,-11.18 0,-16.48 0,-11.6 0.06,-23.2 -0.09,-34.8 -0.02,-1.25 -1.18,-3.52 -1.92,-3.56 -4.98,-0.32 -10,-0.17 -15.52,-0.17 -0.01,10.28 -0.01,20.01 -0.01,29.74 z m 57.89,23.66 c 8.96,0 17.26,0.02 25.56,-0.02 2.04,-0.01 4.1,-0.05 6.11,-0.34 12.91,-1.89 19.4,-7.79 22.03,-20.57 0.76,-3.68 0.77,-7.61 0.52,-11.38 -1.02,-15.13 -10.32,-23.9 -25.48,-24.15 -8.31,-0.14 -16.64,0.1 -24.95,-0.1 -3.18,-0.08 -3.88,1.11 -3.85,4.05 0.14,12.68 0.06,25.36 0.05,38.04 0.01,4.6 0.01,9.21 0.01,14.47 z m 90.41,42.76 c -1.37,-10.78 -9.6,-18.87 -20.66,-20.72 -14.51,-2.42 -27.31,3.19 -33.21,14.55 -6.48,12.48 -4.28,28.92 5.05,38.03 4.4,4.3 9.88,6.29 15.79,7.01 7.7,0.94 14.88,-0.43 20.01,-5.83 1.43,1.78 2.41,4.2 3.86,4.53 2.95,0.67 6.16,0.2 9.77,0.2 0,-10.39 0,-20.37 0,-30.63 -8.37,0 -16.6,0 -25.14,0 0,3.64 0,6.98 0,10.6 1.34,0.1 2.53,0.2 3.71,0.29 1.3,0.09 2.6,0.17 3.96,0.26 -1.14,4.4 -4.42,6.83 -9.41,7.27 -4.6,0.41 -9.36,-2.32 -11.09,-6.83 -2.55,-6.66 -2.27,-13.42 0.56,-19.93 1.72,-3.94 5.13,-6.01 9.4,-6.19 4.13,-0.17 7.34,1.61 9.46,5.31 0.48,0.84 1.43,1.96 2.2,1.99 5.17,0.18 10.32,0.09 15.74,0.09 z m -203.76,28.93 c -0.77,5.46 2.3,5.8 5.87,5.62 1.22,-0.06 2.45,0.09 3.67,0.22 2.07,0.22 2.96,-0.58 2.97,-2.75 0.05,-8.46 0.29,-16.93 0.23,-25.39 -0.01,-0.95 -1.49,-2.66 -2.36,-2.7 -6.95,-0.32 -13.92,-0.4 -20.88,-0.35 -0.81,0.01 -2.25,1.2 -2.31,1.94 -0.27,2.92 -0.11,5.87 -0.11,8.89 3.03,0.21 5.52,0.39 8.52,0.6 -2.3,4.95 -5.74,6.85 -10.33,7 -5.03,0.17 -8.95,-1.85 -10.77,-6.55 -2.56,-6.61 -2.52,-13.49 0.49,-19.92 3.77,-8.08 13.81,-8.44 18.83,-1.02 0.61,0.9 1.72,2.02 2.64,2.05 5.01,0.2 10.03,0.1 15.04,0.1 -0.19,-9.62 -8.36,-18.03 -19.56,-20.53 -14.09,-3.15 -28.47,3.01 -34.28,14.7 -6.37,12.84 -3.55,30.3 6.23,38.55 9.99,8.42 23.65,8.46 36.11,-0.46 z m 232.85,-33.98 c 8.82,0 17.13,0.08 25.42,-0.1 1.16,-0.03 3.19,-1.25 3.28,-2.09 0.37,-3.46 0.16,-6.99 0.16,-10.29 -0.63,-0.33 -0.86,-0.56 -1.1,-0.56 -14.32,-0.31 -28.64,-0.58 -42.96,-0.93 -2.56,-0.06 -2.81,1.32 -2.84,3.35 -0.12,8.18 -0.42,16.36 -0.5,24.54 -0.09,9.64 -0.02,19.28 -0.02,29.53 6.97,0 13.76,-0.08 20.54,0.02 8.05,0.12 16.09,0.47 24.13,0.5 1.09,0 3.06,-1.16 3.13,-1.93 0.33,-3.61 0.15,-7.26 0.15,-11.66 -10.16,0 -19.91,0 -30.14,0 0,-2.22 0.16,-3.7 -0.03,-5.14 -0.54,-3.95 0.93,-5.11 4.95,-4.86 6.48,0.41 13,0.11 19.84,0.11 0,-4.05 0,-7.65 0,-11.89 -8.07,0 -15.93,0 -24.01,0 0,-3.15 0,-5.68 0,-8.6 z m 10.55,-72.76 c -6.15,0 -11.85,0 -17.55,0 -7.06,0 -7.31,-0.29 -6.37,-7.43 0.03,-0.25 0.24,-0.47 0.68,-1.28 8.88,0 18.08,0 27.68,0 0,-3.27 -0.2,-6 0.05,-8.67 0.32,-3.31 -1,-4.16 -4.17,-4.13 -12.68,0.15 -25.37,0.05 -38.06,0.08 -1.18,0 -2.35,0.19 -3.56,0.3 0,18.84 0,37.31 0,55.84 15.76,0 31.2,0 46.77,0 0.1,-1.14 0.21,-1.94 0.23,-2.74 0.26,-10.12 0.26,-10.12 -9.91,-10.12 -6.48,0 -12.97,0 -19.32,0 -1.68,-9.42 -1.48,-9.66 7.13,-9.66 5.4,0 10.8,0 16.39,0 0.01,-4.26 0.01,-7.9 0.01,-12.19 z M 277.86,469.76 c -0.12,-0.96 -0.09,-1.52 -0.26,-2.02 -6.05,-17.65 -12.07,-35.31 -18.29,-52.9 -0.39,-1.1 -2.23,-2.28 -3.48,-2.38 -4.2,-0.35 -8.45,-0.05 -12.66,-0.36 -2.82,-0.21 -4.05,0.81 -5.03,3.42 -5.73,15.31 -11.66,30.53 -17.5,45.8 -0.9,2.35 -1.67,4.75 -2.74,7.8 5.2,0 9.69,-0.21 14.16,0.07 3.09,0.2 4.59,-0.95 4.94,-3.88 0.36,-3.08 2.08,-3.94 5.07,-3.69 3.79,0.32 7.64,0.46 11.43,0.19 3.4,-0.24 5,0.93 5.49,4.28 0.26,1.77 0.57,3.81 3.37,3.73 5.01,-0.16 10.04,-0.06 15.5,-0.06 z m 115.2,-78.43 c 0,-18.97 0,-37.43 0,-56.45 -5.43,0 -10.71,-0.11 -15.97,0.13 -0.72,0.03 -1.94,1.77 -1.94,2.72 -0.12,16.89 -0.07,33.78 -0.11,50.68 -0.01,2.03 0.61,3 2.8,2.95 4.9,-0.09 9.79,-0.03 15.22,-0.03 z M 191.91,337.92 c 0,18.66 0,36.7 0,54.75 6.08,0 11.84,0 17.48,0 0,-18.41 0,-36.45 0,-54.75 -4.73,0 -9.08,0 -13.42,0 -1.22,0 -2.43,0 -4.06,0 z M 235.68,407 c 0.1,-3.33 -2.65,-6.3 -6.04,-6.52 -3.24,-0.21 -6.44,2.63 -6.66,5.92 -0.23,3.42 2.8,6.68 6.27,6.72 3.34,0.05 6.34,-2.81 6.43,-6.12 z m 39.54,2.34 c 0,-3.27 -2.97,-6.34 -6.19,-6.4 -3.2,-0.05 -6.28,2.93 -6.37,6.19 -0.11,3.55 2.87,6.62 6.36,6.56 3.27,-0.05 6.19,-3.04 6.2,-6.35 z"
   class="st1" />
	<path
   id="path16"
   d="m 254,283.54 c 1.02,-3.16 1.8,-7.21 3.6,-10.74 2.16,-4.23 6.25,-5.89 11.02,-5.47 4.67,0.42 7.8,3.06 9.5,7.28 2.48,6.14 2.65,12.5 0.87,18.82 -1.66,5.89 -5.97,9.23 -11.46,9.32 -5.58,0.09 -9.72,-3 -11.58,-9.08 -0.9,-2.94 -1.2,-6.09 -1.95,-10.13 z"
   class="st1" />
	<path
   id="path18"
   d="m 332.78,377.5 c 0,-9.85 0,-19.04 0,-28.97 5.35,0.33 10.93,-1.45 15.21,3.28 3.88,4.29 4.23,14.86 0.87,20.54 -3.73,6.31 -9.86,5.01 -16.08,5.15 z"
   class="st1" />
	<path
   id="path20"
   d="m 249.01,430.92 c 1.82,6.21 3.64,12.42 5.57,18.99 -4.22,0 -7.97,0 -12.5,0 2.06,-6.62 4.01,-12.86 5.96,-19.1 0.32,0.04 0.65,0.07 0.97,0.11 z"
   class="st1" />
</g>
<g
   transform="translate(-107.46376,-152.16633)"
   id="g28">
	<g
   id="g26">
		<path
   id="path24"
   d="m 437.57,492.61 c 0,43.39 0,86.77 0,130.16 0,11.49 17.86,11.51 17.86,0 0,-43.39 0,-86.77 0,-130.16 0,-11.49 -17.86,-11.51 -17.86,0 z"
   class="st1" />
	</g>
</g>
<g
   transform="translate(-107.46376,-152.16633)"
   id="g34">
	<g
   id="g32">
		<path
   id="path30"
   d="m 356.23,507.17 c 0,45.99 0,91.98 0,137.97 0,7.66 11.91,7.67 11.91,0 0,-45.99 0,-91.98 0,-137.97 0,-7.66 -11.91,-7.67 -11.91,0 z"
   class="st1" />
	</g>
</g>
<g
   transform="translate(-107.46376,-152.16633)"
   id="g40">
	<g
   id="g38">
		<path
   id="path36"
   d="m 344.38,491.34 c 0,40.56 0,81.11 0,121.67 0,3.83 5.95,3.84 5.95,0 0,-40.56 0,-81.11 0,-121.67 0,-3.83 -5.95,-3.84 -5.95,0 z"
   class="st1" />
	</g>
</g>
<g
   transform="translate(-107.46376,-152.16633)"
   id="g46">
	<g
   id="g44">
		<path
   id="path42"
   d="m 378.32,507.93 c 0,33.16 0,66.32 0,99.48 0,9.34 8.21,18.29 17.86,17.86 9.68,-0.43 17.86,-7.85 17.86,-17.86 0,-33.16 0,-66.32 0,-99.48 0,-9.34 -8.21,-18.29 -17.86,-17.86 -9.67,0.43 -17.86,7.84 -17.86,17.86 z"
   class="st1" />
	</g>
</g>
</svg>
